# xmcd
#
# Track frame offsets: 
#        150
#        22386
#        56695
#
# Disc length: 1049 seconds
#
# Revision: 0
# Processed by: cddbd v1.5.2PL0 Copyright (c) Steve Scherf et al.
# Submitted via: ExactAudioCopyFreeDBPlugin 1.0
#
DISCID=26041703
DTITLE=KeetBlues - Keet and Friends EP
DYEAR=1900
DGENRE=Blues
TTITLE0=Tribute to Bianco
TTITLE1=Day Dream
TTITLE2=Animal Dance
EXTD=
EXTT0=
EXTT1=
EXTT2=
PLAYORDER=
